<?xml version="1.0" encoding="UTF-8"?>
<svg id="Ebene_3" xmlns="http://www.w3.org/2000/svg" version="1.1" viewBox="0 0 425.2 425.2">
  <!-- Generator: Adobe Illustrator 29.1.0, SVG Export Plug-In . SVG Version: 2.1.0 Build 142)  -->
  <defs>
    <style>
      .st0 {
        fill: #1d1d1b;
      }

      .st1 {
        fill: none;
        stroke: #1d1d1b;
        stroke-miterlimit: 10;
      }
    </style>
  </defs>
  <path class="st0" d="M211.65,50.48c-89.8-.06-162.61,72.74-162.55,162.55.06,88.3,74.02,162.25,162.31,162.31,89.8.06,162.61-72.74,162.55-162.55-.06-88.3-74.02-162.25-162.31-162.31ZM207.44,177.68c0,4.45-1.69,8.78-4.89,11.87-2.71,2.62-6.69,5.13-12.3,5.85-1.26.16-2.21,1.22-2.19,2.49l2.16,122.7c.04,2.49-.63,4.96-2.02,7.03-1.59,2.38-4.26,4.82-8.51,4.93-4.66.11-8.01-3.05-10.07-5.85-1.6-2.18-2.41-4.84-2.35-7.54l2.76-121.24c.03-1.28-.91-2.36-2.18-2.52-4.19-.54-13.17-2.57-17.41-10.23-1.31-2.35-1.83-5.07-1.71-7.77l3.57-79.99c.09-1.86,1.62-3.32,3.48-3.32h.3c1.89,0,3.43,1.53,3.44,3.42l.34,63.64c0,.62.51,1.13,1.14,1.13h4.44c.62-.02,1.12-.51,1.13-1.13l.99-63.49c.03-1.98,1.64-3.57,3.62-3.57.88,0,1.68.35,2.25.92.58.57.95,1.37.96,2.24l.93,63.95c0,.62.51,1.11,1.13,1.11h4.45c.62,0,1.13-.5,1.13-1.12l.45-63.61c.01-1.94,1.58-3.49,3.51-3.5h.03c1.76,0,3.19,1.42,3.2,3.19l.26,63.87c0,.62.5,1.12,1.12,1.13l4.85.03c.61.01,1.12-.48,1.14-1.09l2-62.98c.07-2.31,1.97-4.14,4.27-4.14h.13c2.46,0,4.45,1.99,4.45,4.45v79.14ZM256.16,317.53s0,15.02-11.92,15.02c-8.57,0-11.12-7.45-11.88-11.64-.25-1.37-.32-2.76-.26-4.14l4.28-97.23c.06-1.4-.67-2.71-1.89-3.4-4.45-2.51-14.8-10.54-14.8-30.9,0-25.93.24-90.4,23.22-91.15,0,0,13.25-.78,13.25,15.05v208.39Z"/>
  <path class="st1" d="M197.68,90.48"/>
  <path class="st1" d="M158.91,90.48"/>
</svg>