<?xml version="1.0" encoding="UTF-8"?>
<svg id="Ebene_1" xmlns="http://www.w3.org/2000/svg" version="1.1" viewBox="0 0 425.2 425.2">
  <!-- Generator: Adobe Illustrator 29.1.0, SVG Export Plug-In . SVG Version: 2.1.0 Build 142)  -->
  <defs>
    <style>
      .st0 {
        fill: #1d1d1b;
      }
    </style>
  </defs>
  <path class="st0" d="M213.04,22.47C110.95,22.47,28.19,105.24,28.19,207.33s82.76,184.86,184.85,184.86,184.86-82.76,184.86-184.86S315.14,22.47,213.04,22.47ZM213.75,387.31c-56.55,0-106.98-26.83-141.02-66.73,25.29-51.93,78.22-86.28,139.87-86.28-39.48,0-71.48-32-71.48-71.47s32-71.48,71.48-71.48,71.48,32,71.48,71.48-32.01,71.47-71.48,71.47c62.24,0,115.05,34.76,140.04,87.49-34.01,39.03-83.05,65.52-138.89,65.52Z"/>
</svg>