<?xml version="1.0" encoding="UTF-8"?>
<svg id="Ebene_3" xmlns="http://www.w3.org/2000/svg" version="1.1" viewBox="0 0 425.2 425.2">
  <!-- Generator: Adobe Illustrator 29.1.0, SVG Export Plug-In . SVG Version: 2.1.0 Build 142)  -->
  <defs>
    <style>
      .st0 {
        fill: #1d1d1b;
      }
    </style>
  </defs>
  <path class="st0" d="M212.43,50.25c-89.71,0-162.43,72.72-162.43,162.43s72.72,162.43,162.43,162.43,162.43-72.72,162.43-162.43S302.14,50.25,212.43,50.25ZM163.48,177.84c13.71,0,24.83,11.11,24.83,24.83s-11.12,24.83-24.83,24.83-24.83-11.12-24.83-24.83,11.11-24.83,24.83-24.83ZM318.83,272.19c0,4.11-3.34,7.45-7.45,7.45s-7.45-3.34-7.45-7.45v-12.42H121.27v12.42c0,4.11-3.34,7.45-7.45,7.45s-7.45-3.34-7.45-7.45v-119.18c0-4.12,3.33-7.45,7.45-7.45s7.45,3.33,7.45,7.45v91.87h91.86v-38.67c0-7.91,0-11.89,1.12-15.07,1.99-5.71,6.48-10.19,12.18-12.19,3.19-1.1,13.52-1.1,21.45-1.1h.02c19.8,0,29.71,0,37.68,2.78,14.26,4.99,25.48,16.2,30.47,30.47,2.78,7.96,2.78,17.87,2.78,37.68v23.41Z"/>
</svg>